<svg width="400" height="400" viewBox="0 0 400 400" fill="none" xmlns="http://www.w3.org/2000/svg">
<path d="M227.5 108.929V227.679H58.75V108.929H227.5ZM58.75 75C40.1348 75 25 90.2148 25 108.929V227.679C25 246.392 40.1348 261.607 58.75 261.607H120.607L114.965 278.571H75.625C66.291 278.571 58.75 286.152 58.75 295.536C58.75 304.919 66.291 312.5 75.625 312.5H210.625C219.959 312.5 227.5 304.919 227.5 295.536C227.5 286.152 219.959 278.571 210.625 278.571H171.232L165.59 261.607H227.5C246.115 261.607 261.25 246.392 261.25 227.679V108.929C261.25 90.2148 246.115 75 227.5 75H58.75ZM303.438 75C289.463 75 278.125 86.3979 278.125 100.446V287.054C278.125 301.102 289.463 312.5 303.438 312.5H337.188C351.162 312.5 362.5 301.102 362.5 287.054V100.446C362.5 86.3979 351.162 75 337.188 75H303.438ZM311.875 108.929H328.75C333.391 108.929 337.188 112.746 337.188 117.411C337.188 122.076 333.391 125.893 328.75 125.893H311.875C307.234 125.893 303.438 122.076 303.438 117.411C303.438 112.746 307.234 108.929 311.875 108.929ZM303.438 151.339C303.438 146.674 307.234 142.857 311.875 142.857H328.75C333.391 142.857 337.188 146.674 337.188 151.339C337.188 156.004 333.391 159.821 328.75 159.821H311.875C307.234 159.821 303.438 156.004 303.438 151.339ZM320.312 270.089C310.979 270.089 303.438 262.508 303.438 253.125C303.438 243.742 310.979 236.161 320.312 236.161C329.646 236.161 337.188 243.742 337.188 253.125C337.188 262.508 329.646 270.089 320.312 270.089Z" fill="black"/>
</svg>
