<svg width="406" height="81" viewBox="0 0 406 81" fill="none" xmlns="http://www.w3.org/2000/svg">
<g clip-path="url(#clip0_914_8618)">
<path d="M22.5452 34.3798H55.2939V46.6242H22.5452V34.3798ZM23.7113 62.3669H60.7359V75H8.06572V6.97582H59.4726V19.6089H23.7113V62.3669ZM68.8889 75V64.7964L110.967 14.0698L112.91 19.8032H69.6663V6.97582H126.904V17.1794L84.9232 67.906L82.9796 62.1726H128.361V75H68.8889ZM141.471 75V6.97582H166.931C172.697 6.97582 177.653 7.9152 181.799 9.79397C185.945 11.6079 189.12 14.2641 191.323 17.7625C193.59 21.1961 194.724 25.3747 194.724 30.2984C194.724 35.0925 193.59 39.2387 191.323 42.7371C189.12 46.1707 185.945 48.8269 181.799 50.7057C177.653 52.5844 172.697 53.5238 166.931 53.5238H145.455L148.662 50.1226V75H141.471ZM148.662 50.7057L145.455 47.2073H166.737C173.539 47.2073 178.69 45.7496 182.188 42.8343C185.751 39.8542 187.533 35.6755 187.533 30.2984C187.533 24.8565 185.751 20.6454 182.188 17.6653C178.69 14.6852 173.539 13.1952 166.737 13.1952H145.455L148.662 9.79397V50.7057ZM240.764 75.5831C235.646 75.5831 230.917 74.7409 226.576 73.0565C222.235 71.3073 218.478 68.8778 215.303 65.7681C212.129 62.6585 209.635 58.9981 207.821 54.7871C206.072 50.5761 205.197 45.9763 205.197 40.9879C205.197 35.9995 206.072 31.3997 207.821 27.1887C209.635 22.9777 212.129 19.3173 215.303 16.2077C218.543 13.098 222.333 10.701 226.673 9.01654C231.014 7.26735 235.743 6.39275 240.861 6.39275C245.785 6.39275 250.417 7.23496 254.757 8.91937C259.098 10.539 262.758 13.0008 265.738 16.3048L261.171 20.8722C258.385 18.0216 255.308 15.9809 251.939 14.75C248.57 13.4543 244.942 12.8065 241.055 12.8065C236.974 12.8065 233.184 13.5191 229.686 14.9444C226.187 16.3049 223.142 18.2808 220.551 20.8722C217.96 23.3988 215.919 26.3789 214.429 29.8125C213.004 33.1813 212.291 36.9065 212.291 40.9879C212.291 45.0694 213.004 48.8269 214.429 52.2605C215.919 55.6293 217.96 58.6094 220.551 61.2008C223.142 63.7274 226.187 65.7034 229.686 67.1286C233.184 68.4891 236.974 69.1694 241.055 69.1694C244.942 69.1694 248.57 68.5215 251.939 67.2258C255.308 65.9301 258.385 63.857 261.171 61.0065L265.738 65.5738C262.758 68.8778 259.098 71.372 254.757 73.0565C250.417 74.7409 245.752 75.5831 240.764 75.5831Z" fill="white"/>
</g>
<defs>
<clipPath id="clip0_914_8618">
<rect width="406" height="81" fill="white"/>
</clipPath>
</defs>
</svg>
